<?xml version="1.0" encoding="utf-8"?>
<!-- Generator: Adobe Illustrator 17.1.0, SVG Export Plug-In . SVG Version: 6.00 Build 0)  -->
<!DOCTYPE svg PUBLIC "-//W3C//DTD SVG 1.1//EN" "http://www.w3.org/Graphics/SVG/1.1/DTD/svg11.dtd">
<svg version="1.1" id="color" xmlns="http://www.w3.org/2000/svg" xmlns:xlink="http://www.w3.org/1999/xlink" x="0px" y="0px"
	 viewBox="0 0 738 738" enable-background="new 0 0 738 738" xml:space="preserve">
<g>
	
		<path opacity="0.99" fill="#454342" stroke="#454342" stroke-width="2" stroke-linecap="round" stroke-linejoin="round" stroke-miterlimit="10" d="
		M628.28,107.87l-0.01-0.01C561.76,41.81,470.14,1,369,1C165.76,1,1,165.76,1,369c0,101.14,40.81,192.76,106.86,259.28
		c8.89,8.96,18.25,17.47,28.02,25.47C199.35,705.78,280.52,737,369,737c203.24,0,368-164.75,368-368
		C737,266.91,695.43,174.53,628.28,107.87z M429.73,612.94l5.88-5.88V488.85l3.27-116.91L369,449.66l-24.59-27.1l-14.67-16.16
		l-31.28-34.46l2.09,63.66l1.13,34.34l0.7,21.52v115.6l5.88,5.88H191.35l5.88-5.88V125.07h6.53L369,310.55l164.58-184.83h7.18
		v481.34l5.88,5.88H429.73z"/>
	<path opacity="0.35" d="M737,369c0,203.25-164.76,368-368,368c-88.48,0-169.65-31.22-233.12-83.25l61.35-68.01l104.45-115.8
		l42.73-47.38l196.35-217.69l87.51-97.01l0.01,0.01C695.43,174.53,737,266.91,737,369z"/>
</g>
</svg>
